<?xml version="1.0" encoding="iso-8859-1"?>
<!-- Generator: Adobe Illustrator 30.0.0, SVG Export Plug-In . SVG Version: 9.03 Build 0)  -->
<svg version="1.1" id="Layer_1" xmlns="http://www.w3.org/2000/svg" xmlns:xlink="http://www.w3.org/1999/xlink" x="0px" y="0px"
	 width="547.264px" height="260.906px" viewBox="0 0 547.264 260.906" enable-background="new 0 0 547.264 260.906"
	 xml:space="preserve">
<g>
	<path fill="#E95F25" d="M2.389,0h49.369c19.588,0,31.85,9.873,31.85,29.621c0,12.262-4.937,20.862-13.377,25.481
		c9.715,4.3,15.288,13.377,15.288,26.754c0,19.589-12.104,29.621-31.851,29.621H2.389V0z M21.34,47.458h27.232
		c10.511,0,15.448-5.574,15.448-15.607c0-10.033-4.937-15.448-15.448-15.448H21.34V47.458z M21.34,94.915h29.144
		c10.511,0,15.607-5.255,15.607-15.288c0-10.192-4.937-15.766-15.607-15.766H21.34V94.915z"/>
	<polygon fill="#E95F25" points="268.662,16.403 268.662,0 193.812,0 193.812,47.458 121.192,47.458 121.192,16.403 177.091,16.403 
		177.091,0 102.241,0 102.241,111.478 177.091,111.478 177.091,94.915 121.192,94.915 121.192,63.861 193.812,63.861 
		193.812,111.478 268.662,111.478 268.662,94.915 212.763,94.915 212.763,63.861 260.699,63.861 260.699,47.458 212.763,47.458 
		212.763,16.403 	"/>
	<path fill="#E95F25" d="M285.383,0h45.865c22.295,0,36.946,10.67,36.946,35.832c0,18.155-7.484,28.825-20.066,33.443l21.181,42.202
		h-21.818l-19.11-39.654h-24.048v39.654h-18.951V0z M304.334,55.42h26.277c10.988,0,17.996-5.414,17.996-19.588
		s-7.007-19.429-17.996-19.429h-26.277V55.42z"/>
	<path fill="#E95F25" d="M49.369,213.766l-19.747-3.503c-18.155-3.344-29.144-13.537-29.144-30.736
		c0-22.136,15.288-33.284,41.247-33.284c25.799,0,41.088,11.307,41.088,33.762v2.07H63.861v-2.07
		c0-11.466-7.803-17.358-22.136-17.358c-14.492,0-21.818,5.096-21.818,15.607c0,8.122,5.733,13.059,14.332,14.651l19.748,3.504
		c18.951,3.504,29.143,13.696,29.143,30.577c0,22.773-15.766,33.922-41.565,33.922C15.766,260.906,0,249.599,0,227.143v-2.07h18.951
		v2.07c0,11.466,8.282,17.2,22.615,17.2c14.492,0,22.136-4.778,22.136-15.925C63.701,220.137,57.969,215.359,49.369,213.766z"/>
	<path fill="#E95F25" d="M87.023,147.517h87.112v16.403h-34.08v95.075h-18.951V163.92h-34.08V147.517z"/>
	<path fill="#E95F25" d="M185.759,147.517h45.865c22.295,0,36.946,10.67,36.946,35.832c0,18.155-7.484,28.825-20.066,33.443
		l21.18,42.202h-21.818l-19.11-39.654H204.71v39.654h-18.951V147.517z M204.71,202.937h26.277c10.988,0,17.996-5.414,17.996-19.588
		s-7.007-19.429-17.996-19.429H204.71V202.937z"/>
	<polygon fill="#E95F25" points="452.508,163.92 452.508,147.517 377.659,147.517 377.659,194.975 305.039,194.975 305.039,163.92 
		360.937,163.92 360.937,147.517 286.088,147.517 286.088,258.995 360.937,258.995 360.937,242.433 305.039,242.433 
		305.039,211.378 377.659,211.378 377.659,258.995 452.508,258.995 452.508,242.433 396.61,242.433 396.61,211.378 444.545,211.378 
		444.545,194.975 396.61,194.975 396.61,163.92 	"/>
	<path fill="#E95F25" d="M460.152,147.517h87.112v16.403h-34.08v95.075h-18.951V163.92h-34.08V147.517z"/>
</g>
<g>
</g>
<g>
</g>
<g>
</g>
<g>
</g>
<g>
</g>
<g>
</g>
<g>
</g>
<g>
</g>
<g>
</g>
<g>
</g>
<g>
</g>
<g>
</g>
<g>
</g>
<g>
</g>
<g>
</g>
</svg>
